<?xml version="1.0" encoding="UTF-8" standalone="no" ?>
<!DOCTYPE svg PUBLIC "-//W3C//DTD SVG 1.1//EN" "http://www.w3.org/Graphics/SVG/1.1/DTD/svg11.dtd">
<svg xmlns="http://www.w3.org/2000/svg" xmlns:xlink="http://www.w3.org/1999/xlink" version="1.1" width="500" height="500" viewBox="0 0 500 500" xml:space="preserve">
<desc>Created with Fabric.js 3.6.3</desc>
<defs>
</defs>
<g transform="matrix(1.5267707692954429 0 0 1.5267707692954429 253 207.46876708071295)"  >
<g style=""   >
		<g transform="matrix(1 0 0 1 -1.5 0.8999999999999986)"  >
<circle style="stroke: none; stroke-width: 1; stroke-dasharray: none; stroke-linecap: butt; stroke-dashoffset: 0; stroke-linejoin: miter; stroke-miterlimit: 4; fill: rgb(26,109,175); fill-rule: nonzero; opacity: 1;"  cx="0" cy="0" r="55.6" />
</g>
		<g transform="matrix(1 0 0 1 -12.200000000000003 48.05)"  >
<line style="stroke: rgb(253,205,18); stroke-width: 2; stroke-dasharray: none; stroke-linecap: round; stroke-dashoffset: 0; stroke-linejoin: round; stroke-miterlimit: 10; fill: none; fill-rule: nonzero; opacity: 1;"  x1="-10.700000000000003" y1="9.550000000000004" x2="10.700000000000003" y2="-9.550000000000004" />
</g>
		<g transform="matrix(1 0 0 1 3.899999999999988 -48.650000000000006)"  >
<line style="stroke: rgb(253,205,18); stroke-width: 2; stroke-dasharray: none; stroke-linecap: round; stroke-dashoffset: 0; stroke-linejoin: round; stroke-miterlimit: 10; fill: none; fill-rule: nonzero; opacity: 1;"  x1="-11.2" y1="8.95" x2="11.2" y2="-8.95" />
</g>
		<g transform="matrix(1 0 0 1 46.45 3.949999999999992)"  >
<line style="stroke: rgb(253,205,18); stroke-width: 2; stroke-dasharray: none; stroke-linecap: round; stroke-dashoffset: 0; stroke-linejoin: round; stroke-miterlimit: 10; fill: none; fill-rule: nonzero; opacity: 1;"  x1="-11.25" y1="8.95" x2="11.25" y2="-8.95" />
</g>
		<g transform="matrix(1 0 0 1 45.55 -13.25)"  >
<line style="stroke: rgb(244,94,172); stroke-width: 2; stroke-dasharray: none; stroke-linecap: round; stroke-dashoffset: 0; stroke-linejoin: round; stroke-miterlimit: 10; fill: none; fill-rule: nonzero; opacity: 1;"  x1="-9.950000000000003" y1="8.850000000000001" x2="9.950000000000003" y2="-8.850000000000001" />
</g>
		<g transform="matrix(1 0 0 1 -37.45 43.849999999999994)"  >
<line style="stroke: rgb(26,109,175); stroke-width: 2; stroke-dasharray: none; stroke-linecap: round; stroke-dashoffset: 0; stroke-linejoin: round; stroke-miterlimit: 10; fill: none; fill-rule: nonzero; opacity: 1;"  x1="-9.95" y1="8.850000000000001" x2="9.95" y2="-8.850000000000001" />
</g>
		<g transform="matrix(1 0 0 1 -47.400000000000006 11.800000000000008)"  >
<line style="stroke: rgb(244,94,172); stroke-width: 2; stroke-dasharray: none; stroke-linecap: round; stroke-dashoffset: 0; stroke-linejoin: round; stroke-miterlimit: 10; fill: none; fill-rule: nonzero; opacity: 1;"  x1="-10.3" y1="8.500000000000004" x2="10.3" y2="-8.500000000000004" />
</g>
		<g transform="matrix(1 0 0 1 27.45000000000001 -44.150000000000006)"  >
<line style="stroke: rgb(244,94,172); stroke-width: 2; stroke-dasharray: none; stroke-linecap: round; stroke-dashoffset: 0; stroke-linejoin: round; stroke-miterlimit: 10; fill: none; fill-rule: nonzero; opacity: 1;"  x1="-10.449999999999996" y1="8.25" x2="10.449999999999996" y2="-8.25" />
</g>
		<g transform="matrix(1 0 0 1 -44 -33.300000000000004)"  >
<line style="stroke: rgb(244,94,172); stroke-width: 2; stroke-dasharray: none; stroke-linecap: round; stroke-dashoffset: 0; stroke-linejoin: round; stroke-miterlimit: 10; fill: none; fill-rule: nonzero; opacity: 1;"  x1="-10.2" y1="8.6" x2="10.2" y2="-8.6" />
</g>
		<g transform="matrix(1 0 0 1 -34.7 14.550000000000008)"  >
<line style="stroke: rgb(37,171,190); stroke-width: 2; stroke-dasharray: none; stroke-linecap: round; stroke-dashoffset: 0; stroke-linejoin: round; stroke-miterlimit: 10; fill: none; fill-rule: nonzero; opacity: 1;"  x1="-20.6" y1="18.05" x2="20.6" y2="-18.05" />
</g>
		<g transform="matrix(1 0 0 1 36.74999999999998 31.049999999999997)"  >
<line style="stroke: rgb(37,171,190); stroke-width: 2; stroke-dasharray: none; stroke-linecap: round; stroke-dashoffset: 0; stroke-linejoin: round; stroke-miterlimit: 10; fill: none; fill-rule: nonzero; opacity: 1;"  x1="-20.65" y1="18.050000000000004" x2="20.65" y2="-18.050000000000004" />
</g>
		<g transform="matrix(1 0 0 1 26.85000000000001 33.749999999999986)"  >
<path style="stroke: none; stroke-width: 1; stroke-dasharray: none; stroke-linecap: butt; stroke-dashoffset: 0; stroke-linejoin: miter; stroke-miterlimit: 4; fill: rgb(37,171,190); fill-rule: nonzero; opacity: 1;"  transform=" translate(-85.55000000000001, -92.35)" d="M 111.9 69.7 L 59.2 115 C 85.5 114.1 107.2 94.9 111.9 69.7 z" stroke-linecap="round" />
</g>
		<g transform="matrix(1 0 0 1 21.450000000000003 27.9)"  >
<path style="stroke: none; stroke-width: 1; stroke-dasharray: none; stroke-linecap: butt; stroke-dashoffset: 0; stroke-linejoin: miter; stroke-miterlimit: 4; fill: rgb(26,109,175); fill-rule: nonzero; opacity: 1;"  transform=" translate(-80.15, -86.5)" d="M 112.8 57.8 l -65.3 56.5 c 3.2 0.6 6.4 0.9 9.7 0.9 c 0.7 0 1.3 0 2 -0.1 l 52.6 -45.3 c 0.6 -3.3 1 -6.8 1 -10.3 C 112.8 58.9 112.8 58.3 112.8 57.8 z" stroke-linecap="round" />
</g>
		<g transform="matrix(1 0 0 1 17.10000000000001 21.70000000000001)"  >
<path style="stroke: none; stroke-width: 1; stroke-dasharray: none; stroke-linecap: butt; stroke-dashoffset: 0; stroke-linejoin: miter; stroke-miterlimit: 4; fill: rgb(253,205,18); fill-rule: nonzero; opacity: 1;"  transform=" translate(-75.80000000000001, -80.30000000000001)" d="M 38.9 112 c 3 1 6.1 1.8 9.3 2.4 l 64.5 -56.5 c -0.1 -4 -0.7 -7.9 -1.6 -11.7 L 38.9 112 z" stroke-linecap="round" />
</g>
		<g transform="matrix(1 0 0 1 8.849999999999994 12.999999999999993)"  >
<path style="stroke: none; stroke-width: 1; stroke-dasharray: none; stroke-linecap: butt; stroke-dashoffset: 0; stroke-linejoin: miter; stroke-miterlimit: 4; fill: rgb(244,94,172); fill-rule: nonzero; opacity: 1;"  transform=" translate(-67.55, -71.6)" d="M 105.1 31.2 L 24 104.1 c 4.5 3.4 9.5 6 14.9 7.9 l 72.2 -65.9 C 109.9 40.8 107.8 35.8 105.1 31.2 z" stroke-linecap="round" />
</g>
		<g transform="matrix(1 0 0 1 -27.000000000000004 -32.150000000000006)"  >
<path style="stroke: none; stroke-width: 1; stroke-dasharray: none; stroke-linecap: butt; stroke-dashoffset: 0; stroke-linejoin: miter; stroke-miterlimit: 4; fill: rgb(244,94,172); fill-rule: nonzero; opacity: 1;"  transform=" translate(-31.7, -26.45)" d="M 57.2 3.9 C 30.1 3.9 7.5 23.3 2.6 49 L 60.8 4 C 59.6 3.9 58.4 3.9 57.2 3.9 z" stroke-linecap="round" />
</g>
		<g transform="matrix(1 0 0 1 -0.45000000000000284 4)"  >
<path style="stroke: none; stroke-width: 1; stroke-dasharray: none; stroke-linecap: butt; stroke-dashoffset: 0; stroke-linejoin: miter; stroke-miterlimit: 4; fill: rgb(26,109,175); fill-rule: nonzero; opacity: 1;"  transform=" translate(-58.25, -62.6)" d="M 97.2 20.9 l -85.9 70 c 3.5 5.2 7.9 9.7 13 13.4 l 80.9 -73 C 102.9 27.5 100.2 24 97.2 20.9 z" stroke-linecap="round" />
</g>
		<g transform="matrix(1 0 0 1 -15.949999999999996 -23.3)"  >
<path style="stroke: none; stroke-width: 1; stroke-dasharray: none; stroke-linecap: butt; stroke-dashoffset: 0; stroke-linejoin: miter; stroke-miterlimit: 4; fill: rgb(26,109,175); fill-rule: nonzero; opacity: 1;"  transform=" translate(-42.75000000000001, -35.3)" d="M 68.9 5.1 l -67.1 52 l -0.1 0.1 c 0 0.8 -0.1 1.5 -0.1 2.3 c 0 2 0.1 4.1 0.3 6 l 82 -54.8 C 79.3 8.1 74.2 6.2 68.9 5.1 z" stroke-linecap="round" />
</g>
		<g transform="matrix(1 0 0 1 -7.350000000000001 -6.000000000000007)"  >
<path style="stroke: none; stroke-width: 1; stroke-dasharray: none; stroke-linecap: butt; stroke-dashoffset: 0; stroke-linejoin: miter; stroke-miterlimit: 4; fill: rgb(37,171,190); fill-rule: nonzero; opacity: 1;"  transform=" translate(-51.35, -52.599999999999994)" d="M 89.8 14.4 L 5.5 80 c 1.5 3.8 3.5 7.5 5.8 10.8 l 85.9 -70 C 94.9 18.5 92.5 16.4 89.8 14.4 z" stroke-linecap="round" />
</g>
		<g transform="matrix(1 0 0 1 -12.850000000000001 -13.250000000000007)"  >
<path style="stroke: none; stroke-width: 1; stroke-dasharray: none; stroke-linecap: butt; stroke-dashoffset: 0; stroke-linejoin: miter; stroke-miterlimit: 4; fill: rgb(244,94,172); fill-rule: nonzero; opacity: 1;"  transform=" translate(-45.85, -45.349999999999994)" d="M 83.9 10.7 l -82 54.8 c 0.5 5.1 1.8 9.9 3.6 14.5 l 84.3 -65.6 C 87.9 13.1 86 11.8 83.9 10.7 z" stroke-linecap="round" />
</g>
		<g transform="matrix(1 0 0 1 -22.75 -27.150000000000002)"  >
<path style="stroke: none; stroke-width: 1; stroke-dasharray: none; stroke-linecap: butt; stroke-dashoffset: 0; stroke-linejoin: miter; stroke-miterlimit: 4; fill: rgb(253,205,18); fill-rule: nonzero; opacity: 1;"  transform=" translate(-35.95, -31.45)" d="M 60 3.9 l -55.3 37 c -2 5.7 -3.1 11.7 -3.2 18.1 L 70.4 5.4 C 67 4.6 63.6 4.1 60 3.9 z" stroke-linecap="round" />
</g>
</g>
</g>
<g transform="matrix(1 0 0 1 254.99999219731416 334.4733296007589)" style=""  ><path fill="#ffffff" opacity="1" d="M-177.59 6.81L-177.59-7.28L-172.82-7.28Q-170.41-7.28-168.87-6.12Q-167.33-4.96-167.33-2.95L-167.33-2.95Q-167.33-0.86-168.85 0.31Q-170.37 1.48-172.82 1.48L-172.82 1.48L-175.96 1.48L-175.96 6.81L-177.59 6.81ZM-173.15-5.89L-175.96-5.89L-175.96 0.07L-173.15 0.07Q-168.96 0.07-168.96-2.95L-168.96-2.95Q-168.96-5.89-173.15-5.89L-173.15-5.89Z"/><path fill="#ffffff" opacity="1" d="M-161.61 6.81L-161.61-7.28L-156.08-7.28Q-153.96-7.28-152.62-6.23Q-151.29-5.18-151.29-3.38L-151.29-3.38Q-151.29-2.14-152.14-1.12Q-153.00-0.11-154.56 0.31L-154.56 0.31L-150.29 6.81L-152.26 6.81L-156.21 0.59L-159.98 0.59L-159.98 6.81L-161.61 6.81ZM-156.41-5.89L-159.98-5.89L-159.98-0.82L-156.38-0.82Q-154.82-0.82-153.87-1.48Q-152.91-2.14-152.91-3.38L-152.91-3.38Q-152.91-5.89-156.41-5.89L-156.41-5.89Z"/><path fill="#ffffff" opacity="1" d="M-135.63 6.81L-144.78 6.81L-144.78-7.28L-135.96-7.28L-135.96-5.89L-143.16-5.89L-143.16-1.23L-136.67-1.23L-136.67 0.15L-143.16 0.15L-143.16 5.40L-135.63 5.40L-135.63 6.81Z"/><path fill="#ffffff" opacity="1" d="M-129.80 6.81L-129.80-7.28L-120.97-7.28L-120.97-5.89L-128.17-5.89L-128.17-1.15L-121.69-1.15L-121.69 0.22L-128.17 0.22L-128.17 6.81L-129.80 6.81Z"/><path fill="#ffffff" opacity="1" d="M-105.99 6.81L-115.14 6.81L-115.14-7.28L-106.32-7.28L-106.32-5.89L-113.51-5.89L-113.51-1.23L-107.03-1.23L-107.03 0.15L-113.51 0.15L-113.51 5.40L-105.99 5.40L-105.99 6.81Z"/><path fill="#ffffff" opacity="1" d="M-100.16 6.81L-100.16-7.28L-98.53-7.28L-98.53 6.81L-100.16 6.81Z"/><path fill="#ffffff" opacity="1" d="M-88.47-5.89L-92.81-5.89L-92.81-7.28L-82.51-7.28L-82.51-5.89L-86.84-5.89L-86.84 6.81L-88.47 6.81L-88.47-5.89Z"/><path fill="#ffffff" opacity="1" d="M-76.89 0.52L-76.89-7.28L-75.26-7.28L-75.26 0.68Q-75.26 3.17-74.15 4.44Q-73.03 5.71-71.04 5.71Q-69.04 5.71-67.91 4.44Q-66.79 3.17-66.79 0.68L-66.79 0.68L-66.79-7.28L-65.16-7.28L-65.16 0.52Q-65.16 3.82-66.71 5.46Q-68.26 7.09-71.04 7.09Q-73.81 7.09-75.35 5.47Q-76.89 3.84-76.89 0.52L-76.89 0.52Z"/><path fill="#ffffff" opacity="1" d="M-59.00 6.81L-59.00-7.28L-53.47-7.28Q-51.35-7.28-50.01-6.23Q-48.68-5.18-48.68-3.38L-48.68-3.38Q-48.68-2.14-49.54-1.12Q-50.39-0.11-51.95 0.31L-51.95 0.31L-47.68 6.81L-49.66 6.81L-53.60 0.59L-57.38 0.59L-57.38 6.81L-59.00 6.81ZM-53.80-5.89L-57.38-5.89L-57.38-0.82L-53.78-0.82Q-52.21-0.82-51.26-1.48Q-50.31-2.14-50.31-3.38L-50.31-3.38Q-50.31-5.89-53.80-5.89L-53.80-5.89Z"/><path fill="#ffffff" opacity="1" d="M-43.04 6.81L-36.95-7.28L-35.04-7.28L-28.97 6.81L-30.68 6.81L-32.70 2.06L-39.40 2.06L-41.37 6.81L-43.04 6.81ZM-35.89-5.61L-36.19-5.61L-38.84 0.72L-33.26 0.72L-35.89-5.61Z"/><path fill="#ffffff" opacity="1" d="M-23.57 6.81L-23.57-7.28L-18.80-7.28Q-16.39-7.28-14.85-6.12Q-13.31-4.96-13.31-2.95L-13.31-2.95Q-13.31-0.86-14.83 0.31Q-16.35 1.48-18.80 1.48L-18.80 1.48L-21.94 1.48L-21.94 6.81L-23.57 6.81ZM-19.13-5.89L-21.94-5.89L-21.94 0.07L-19.13 0.07Q-14.94 0.07-14.94-2.95L-14.94-2.95Q-14.94-5.89-19.13-5.89L-19.13-5.89Z"/><path fill="#ffffff" opacity="1" d="M-7.59 6.81L-7.59-7.28L-2.06-7.28Q0.07-7.28 1.40-6.23Q2.73-5.18 2.73-3.38L2.73-3.38Q2.73-2.14 1.88-1.12Q1.02-0.11-0.54 0.31L-0.54 0.31L3.73 6.81L1.76 6.81L-2.19 0.59L-5.96 0.59L-5.96 6.81L-7.59 6.81ZM-2.39-5.89L-5.96-5.89L-5.96-0.82L-2.36-0.82Q-0.80-0.82 0.15-1.48Q1.11-2.14 1.11-3.38L1.11-3.38Q1.11-5.89-2.39-5.89L-2.39-5.89Z"/><path fill="#ffffff" opacity="1" d="M11.39-4.55Q9.67-2.92 9.67-0.24Q9.67 2.45 11.39 4.08Q13.12 5.71 15.59 5.71Q18.06 5.71 19.79 4.08Q21.51 2.45 21.51-0.24Q21.51-2.92 19.79-4.55Q18.06-6.18 15.59-6.18Q13.12-6.18 11.39-4.55ZM23.14-0.24L23.14-0.24Q23.14 3.00 20.98 5.04Q18.82 7.09 15.59 7.09L15.59 7.09Q12.34 7.09 10.19 5.06Q8.04 3.02 8.04-0.24L8.04-0.24Q8.04-3.47 10.20-5.52Q12.36-7.56 15.59-7.56L15.59-7.56Q18.84-7.56 20.99-5.53Q23.14-3.49 23.14-0.24Z"/><path fill="#ffffff" opacity="1" d=""/><path fill="#ffffff" opacity="1" d="M47.68-6.42L47.68-6.42L46.99-5.14Q45.30-6.20 43.26-6.20L43.26-6.20Q41.74-6.20 41.00-5.53Q40.27-4.85 40.27-3.94L40.27-3.94Q40.27-3.05 40.85-2.49Q41.44-1.93 42.74-1.67L42.74-1.67L44.80-1.23Q48.53-0.45 48.53 2.93L48.53 2.93Q48.53 4.71 47.13 5.90Q45.73 7.09 43.13 7.09L43.13 7.09Q41.63 7.09 40.56 6.83Q39.49 6.57 38.27 5.94L38.27 5.94L38.84 4.47Q40.92 5.66 43.09 5.66L43.09 5.66Q45.08 5.66 46.00 4.91Q46.92 4.17 46.92 2.95L46.92 2.95Q46.92 1.76 46.27 1.12Q45.62 0.48 44.08 0.15L44.08 0.15L41.81-0.32Q40.42-0.60 39.57-1.51Q38.73-2.43 38.73-3.86L38.73-3.86Q38.73-5.50 39.93-6.53Q41.13-7.56 43.26-7.56L43.26-7.56Q45.82-7.56 47.68-6.42Z"/><path fill="#ffffff" opacity="1" d="M57.17-4.55Q55.45-2.92 55.45-0.24Q55.45 2.45 57.17 4.08Q58.89 5.71 61.37 5.71Q63.84 5.71 65.56 4.08Q67.28 2.45 67.28-0.24Q67.28-2.92 65.56-4.55Q63.84-6.18 61.37-6.18Q58.89-6.18 57.17-4.55ZM68.91-0.24L68.91-0.24Q68.91 3.00 66.75 5.04Q64.60 7.09 61.37 7.09L61.37 7.09Q58.11 7.09 55.97 5.06Q53.82 3.02 53.82-0.24L53.82-0.24Q53.82-3.47 55.98-5.52Q58.13-7.56 61.37-7.56L61.37-7.56Q64.62-7.56 66.76-5.53Q68.91-3.49 68.91-0.24Z"/><path fill="#ffffff" opacity="1" d="M76.26-7.28L76.26 5.40L83.07 5.40L83.07 6.81L74.64 6.81L74.64-7.28L76.26-7.28Z"/><path fill="#ffffff" opacity="1" d="M87.93 0.52L87.93-7.28L89.55-7.28L89.55 0.68Q89.55 3.17 90.67 4.44Q91.79 5.71 93.78 5.71Q95.78 5.71 96.91 4.44Q98.03 3.17 98.03 0.68L98.03 0.68L98.03-7.28L99.66-7.28L99.66 0.52Q99.66 3.82 98.11 5.46Q96.56 7.09 93.78 7.09Q91.01 7.09 89.47 5.47Q87.93 3.84 87.93 0.52L87.93 0.52Z"/><path fill="#ffffff" opacity="1" d="M117.68-6.13L117.68-6.13L117.01-4.83Q115.01-6.18 112.84-6.18L112.84-6.18Q110.24-6.18 108.57-4.51Q106.90-2.84 106.90-0.26L106.90-0.26Q106.90 2.50 108.56 4.05Q110.22 5.60 112.82 5.60L112.82 5.60Q114.19 5.60 115.15 5.33Q116.12 5.06 117.22 4.34L117.22 4.34L117.70 5.77Q115.77 7.03 112.91 7.09L112.91 7.09L112.80 7.90Q113.58 7.90 114.07 8.39Q114.56 8.89 114.56 9.61L114.56 9.61Q114.56 10.69 113.61 11.48Q112.67 12.28 111.41 12.49L111.41 12.49L111.19 11.32Q112.15 11.15 112.69 10.71Q113.23 10.28 113.23 9.65L113.23 9.65Q113.23 8.87 112.30 8.87L112.30 8.87L111.52 8.87L111.58 7.03Q108.87 6.73 107.07 4.87Q105.27 3.02 105.27-0.26L105.27-0.26Q105.27-3.47 107.48-5.52Q109.68-7.56 112.84-7.56L112.84-7.56Q115.68-7.56 117.68-6.13Z"/><path fill="#ffffff" opacity="1" d="M125.91-4.55Q124.18-2.92 124.18-0.24Q124.18 2.45 125.91 4.08Q127.63 5.71 130.10 5.71Q132.57 5.71 134.30 4.08Q136.02 2.45 136.02-0.24Q136.02-2.92 134.30-4.55Q132.57-6.18 130.10-6.18Q127.63-6.18 125.91-4.55ZM137.65-0.24L137.65-0.24Q137.65 3.00 135.49 5.04Q133.33 7.09 130.10 7.09L130.10 7.09Q126.85 7.09 124.70 5.06Q122.56 3.02 122.56-0.24L122.56-0.24Q122.56-3.47 124.71-5.52Q126.87-7.56 130.10-7.56L130.10-7.56Q133.36-7.56 135.50-5.53Q137.65-3.49 137.65-0.24ZM126.81-8.71L126.81-8.71L126.35-9.75Q127.35-10.64 128.65-10.64L128.65-10.64Q129.47-10.64 130.25-10.21L130.25-10.21Q131.01-9.80 131.75-9.80L131.75-9.80Q132.64-9.80 133.20-10.34L133.20-10.34L133.88-9.56Q133.01-8.50 131.77-8.50L131.77-8.50Q130.93-8.50 130.08-8.95L130.08-8.95Q129.28-9.39 128.56-9.39L128.56-9.39Q127.63-9.39 126.81-8.71Z"/><path fill="#ffffff" opacity="1" d="M152.52 6.81L143.37 6.81L143.37-7.28L152.20-7.28L152.20-5.89L145.00-5.89L145.00-1.23L151.48-1.23L151.48 0.15L145.00 0.15L145.00 5.40L152.52 5.40L152.52 6.81Z"/><path fill="#ffffff" opacity="1" d="M167.33-6.42L167.33-6.42L166.64-5.14Q164.95-6.20 162.91-6.20L162.91-6.20Q161.39-6.20 160.66-5.53Q159.92-4.85 159.92-3.94L159.92-3.94Q159.92-3.05 160.50-2.49Q161.09-1.93 162.39-1.67L162.39-1.67L164.45-1.23Q168.18-0.45 168.18 2.93L168.18 2.93Q168.18 4.71 166.78 5.90Q165.38 7.09 162.78 7.09L162.78 7.09Q161.28 7.09 160.21 6.83Q159.14 6.57 157.92 5.94L157.92 5.94L158.49 4.47Q160.57 5.66 162.74 5.66L162.74 5.66Q164.73 5.66 165.65 4.91Q166.58 4.17 166.58 2.95L166.58 2.95Q166.58 1.76 165.92 1.12Q165.27 0.48 163.73 0.15L163.73 0.15L161.46-0.32Q160.07-0.60 159.22-1.51Q158.38-2.43 158.38-3.86L158.38-3.86Q158.38-5.50 159.58-6.53Q160.79-7.56 162.91-7.56L162.91-7.56Q165.47-7.56 167.33-6.42Z"/><path fill="#ffffff" opacity="1" d=""/></g><g transform="matrix(1.5576344535505071 0 0 1.5576344535505071 251 208.46876708071292)"  >
<circle style="stroke: none; stroke-width: 0; stroke-dasharray: none; stroke-linecap: butt; stroke-dashoffset: 0; stroke-linejoin: miter; stroke-miterlimit: 4; fill: rgb(4,99,128); fill-rule: evenodd; opacity: 1;"  cx="0" cy="0" r="47.0059" />
</g>
<g transform="matrix(1.0856969468652902 0 0 1.0856969468652902 251 206.8337074787338)"  >
<path style="stroke: none; stroke-width: 0; stroke-dasharray: none; stroke-linecap: butt; stroke-dashoffset: 0; stroke-linejoin: miter; stroke-miterlimit: 4; fill: rgb(255,255,255); fill-rule: evenodd; opacity: 1;"  transform=" translate(-49.00049999999999, -49.000499999999995)" d="M 82.549 55.615 l 0.003 -0.003 c -0.948 -0.948 -2.257 -1.534 -3.702 -1.534 c -1.446 0 -2.755 0.586 -3.703 1.534 c -0.641 0.641 -1.116 1.447 -1.357 2.349 l -4.974 0.022 l -2.752 -4.475 c -0.076 -0.133 -0.175 -0.252 -0.289 -0.353 l -0.004 -0.004 l -0.021 -0.018 l -0.026 -0.021 L 65.72 53.11 l -0.023 -0.018 l -0.003 -0.002 l -0.024 -0.017 c -0.225 -0.161 -0.5 -0.256 -0.798 -0.256 h -5.375 v 2.749 h 4.608 l 2.773 4.509 c 0.282 0.459 0.79 0.693 1.293 0.649 l 5.629 -0.024 c 0.243 0.886 0.715 1.68 1.348 2.313 l 0.003 0.003 l -0.003 0.003 c 0.948 0.948 2.257 1.534 3.703 1.534 c 1.446 0 2.755 -0.586 3.702 -1.534 l 0.079 -0.086 c 0.901 -0.941 1.454 -2.215 1.454 -3.616 c 0 -1.442 -0.586 -2.75 -1.534 -3.697 L 82.549 55.615 z M 80.667 61.019 l -0.058 0.054 c -0.45 0.45 -1.072 0.728 -1.759 0.728 c -0.687 0 -1.309 -0.278 -1.759 -0.728 l -0.003 0.003 c -0.448 -0.449 -0.726 -1.073 -0.726 -1.762 c 0 -0.687 0.279 -1.309 0.728 -1.759 c 0.45 -0.45 1.072 -0.728 1.759 -0.728 c 0.687 0 1.309 0.278 1.759 0.728 l 0.003 -0.003 c 0.448 0.45 0.726 1.073 0.726 1.762 C 81.337 59.975 81.082 60.574 80.667 61.019 z M 66.066 37.084 l 2.752 -4.474 l 4.541 0.008 c 0.241 0.898 0.716 1.702 1.355 2.34 l 0.087 0.079 c 0.94 0.901 2.215 1.454 3.616 1.454 c 1.446 0 2.755 -0.586 3.702 -1.534 c 0.948 -0.948 1.534 -2.257 1.534 -3.702 c 0 -1.442 -0.586 -2.749 -1.534 -3.697 l -0.003 -0.003 l 0.003 -0.003 c -0.948 -0.948 -2.257 -1.534 -3.703 -1.534 c -1.441 0 -2.749 0.588 -3.7 1.537 l -0.003 -0.003 c -0.635 0.636 -1.109 1.434 -1.351 2.327 l -5.314 -0.01 c -0.493 0 -0.925 0.261 -1.166 0.652 l -0.004 -0.003 l -2.773 4.509 h -4.608 v 2.749 h 5.375 C 65.383 37.778 65.829 37.499 66.066 37.084 z M 76.654 29.494 l 0.003 -0.003 c 0.446 -0.447 1.068 -0.723 1.759 -0.723 c 0.687 0 1.31 0.279 1.759 0.729 l 0.003 -0.003 c 0.448 0.45 0.726 1.073 0.726 1.762 c 0 0.687 -0.279 1.309 -0.729 1.759 c -0.45 0.45 -1.072 0.728 -1.759 0.728 c -0.66 0 -1.26 -0.255 -1.705 -0.671 l -0.054 -0.057 c -0.45 -0.45 -0.728 -1.072 -0.728 -1.759 c 0 -0.687 0.278 -1.309 0.728 -1.759 L 76.654 29.494 z M 91.418 41.6 l -0.003 -0.003 l 0.003 -0.003 c -0.948 -0.948 -2.257 -1.534 -3.702 -1.534 c -1.446 0 -2.755 0.586 -3.702 1.534 l -0.08 0.087 c -0.594 0.622 -1.037 1.389 -1.27 2.24 H 59.497 v 2.749 h 23.17 c 0.254 0.935 0.76 1.766 1.441 2.415 c 0.94 0.896 2.211 1.447 3.609 1.447 c 1.445 0 2.755 -0.586 3.702 -1.534 l 0.079 -0.086 c 0.9 -0.941 1.454 -2.215 1.454 -3.616 C 92.952 43.855 92.365 42.548 91.418 41.6 z M 89.533 47.002 l -0.058 0.054 c -0.45 0.45 -1.072 0.728 -1.759 0.728 c -0.669 0 -1.274 -0.26 -1.719 -0.685 c -0.449 -0.428 -0.738 -1.021 -0.77 -1.682 l 0.001 -0.085 l 0.001 -0.036 c 0 -0.662 0.254 -1.261 0.669 -1.703 l 0.059 -0.056 c 0.45 -0.45 1.072 -0.728 1.759 -0.728 c 0.687 0 1.309 0.279 1.759 0.728 l 0.003 -0.003 c 0.448 0.45 0.726 1.073 0.726 1.762 C 90.203 45.958 89.948 46.557 89.533 47.002 z M 24.513 18.434 c 0 0.789 -0.639 1.428 -1.428 1.428 c -2.608 0 -4.729 2.121 -4.729 4.73 c 0 0.789 -0.639 1.428 -1.428 1.428 c -0.789 0 -1.428 -0.639 -1.428 -1.428 c 0 -4.183 3.404 -7.587 7.586 -7.587 C 23.875 17.005 24.513 17.644 24.513 18.434 z M 24.513 13.209 c 0 0.789 -0.639 1.428 -1.428 1.428 c -5.489 0 -9.954 4.466 -9.954 9.955 c 0 0.789 -0.639 1.428 -1.428 1.428 c -0.789 0 -1.428 -0.639 -1.428 -1.428 c 0 -7.065 5.747 -12.812 12.811 -12.812 C 23.875 11.78 24.513 12.419 24.513 13.209 z M 7.905 24.592 c 0 0.789 -0.639 1.428 -1.428 1.428 c -0.79 0 -1.428 -0.64 -1.428 -1.428 c 0 -9.946 8.092 -18.037 18.038 -18.037 c 0.79 0 1.428 0.639 1.428 1.428 c 0 0.789 -0.639 1.428 -1.428 1.428 C 14.715 9.411 7.905 16.221 7.905 24.592 z M 64.708 66.028 c 0.001 0.011 -0.096 1.343 -4.655 3.798 c -0.043 0.023 -0.085 0.048 -0.125 0.075 c -9.826 6.657 -13.19 7.707 -14.321 7.739 c -0.028 0.001 -0.054 0.003 -0.081 0.005 c -3.445 0.295 -6.193 0.176 -8.403 0.08 c -5.191 -0.225 -8.462 -0.358 -12.234 5.05 l -8.744 -8.269 c 6.233 -7.211 9.761 -9.16 14.596 -8.228 c 0.123 0.024 0.25 0.032 0.372 0.022 c 5.849 -0.425 10.03 -2.283 13.391 -3.777 c 0.59 -0.263 1.163 -0.517 1.722 -0.754 c 0.049 -0.02 0.095 -0.043 0.141 -0.069 c 0.681 -0.381 1.344 -0.168 1.652 0.235 c 0.513 0.673 0.126 1.849 -0.986 3.017 c -3.124 2.08 -6.533 3.371 -8.928 3.374 c -0.773 0.001 -1.406 0.617 -1.425 1.39 c -0.021 0.774 0.576 1.422 1.349 1.465 c 6.615 0.366 10.44 0.511 11.686 0.444 c 0.109 -0.005 0.217 -0.024 0.322 -0.054 c 3.654 -1.058 6.561 -2.624 9.371 -4.138 c 1.035 -0.557 2.104 -1.133 3.201 -1.681 c 0.204 -0.046 0.442 -0.116 0.751 -0.209 c 0.137 -0.041 0.274 -0.085 0.394 -0.118 C 64.47 65.707 64.689 65.967 64.708 66.028 z M 13.384 75.828 l 11.584 10.955 l -4.41 4.663 L 7.749 79.331 l 4.409 -4.663 l 0.839 0.793 c 0.068 0.095 0.145 0.185 0.237 0.264 C 13.282 75.766 13.334 75.796 13.384 75.828 z M 29.146 63.237 V 36.195 l -13.778 -1.559 l -0.045 36.482 c 3.018 -3.325 5.748 -5.689 8.638 -6.922 v -2.659 h 2.857 v 1.837 C 27.572 63.255 28.347 63.209 29.146 63.237 z M 20.937 64.395 h -2.857 v -2.858 h 2.857 V 64.395 z M 20.937 52.967 h -2.857 v -2.858 h 2.857 V 52.967 z M 20.937 41.539 h -2.857 v -2.858 h 2.857 V 41.539 z M 23.961 38.681 h 2.857 v 2.858 h -2.857 V 38.681 z M 23.961 52.967 v -2.858 h 2.857 v 2.858 H 23.961 z M 41.076 31.322 c 0 -0.001 0 -0.001 0 -0.002 v -0.033 c 0 -0.031 0.007 -0.062 0.009 -0.093 c 0.004 -0.06 0.007 -0.118 0.018 -0.176 c 0.008 -0.042 0.022 -0.081 0.034 -0.122 c 0.013 -0.048 0.025 -0.096 0.044 -0.141 c 0.018 -0.043 0.041 -0.084 0.062 -0.124 c 0.021 -0.04 0.04 -0.081 0.065 -0.119 c 0.025 -0.039 0.054 -0.072 0.083 -0.109 c 0.029 -0.037 0.056 -0.073 0.088 -0.107 c 0.03 -0.031 0.066 -0.058 0.099 -0.088 c 0.037 -0.031 0.071 -0.063 0.11 -0.091 c 0.038 -0.027 0.08 -0.048 0.122 -0.071 c 0.039 -0.022 0.076 -0.046 0.118 -0.064 c 0.05 -0.022 0.104 -0.037 0.157 -0.053 c 0.032 -0.01 0.063 -0.026 0.097 -0.033 l 3.821 -0.884 v -6.651 l -14 5.659 v 35.315 c 3.643 -0.4 6.54 -1.38 9.074 -2.44 V 31.322 z M 38.066 57.458 h -2.857 V 54.6 h 2.857 V 57.458 z M 38.066 46.029 h -2.857 v -2.858 h 2.857 V 46.029 z M 38.066 34.601 h -2.857 v -2.858 h 2.857 V 34.601 z M 43.934 59.654 c 0.374 -0.165 0.752 -0.334 1.114 -0.488 c 1.838 -0.986 4.032 -0.556 5.247 1.036 c 1.095 1.437 1.407 4.095 -1.321 6.855 c -0.067 0.068 -0.139 0.128 -0.217 0.181 c -0.806 0.544 -1.629 1.04 -2.453 1.483 c 1.722 0.063 2.637 0.072 3.107 0.058 c 2.718 -0.805 4.971 -1.906 7.23 -3.103 l 0 -36.188 h -0.001 l -8.915 2.061 c -0.001 0 -0.002 0 -0.002 0.001 l -3.787 0.876 L 43.934 59.654 z M 51.016 38.299 h 2.857 v 2.858 h -2.857 V 38.299 z M 51.016 49.728 h 2.857 v 2.858 h -2.857 V 49.728 z M 46.222 38.299 h 2.857 v 2.858 h -2.857 V 38.299 z M 46.222 49.728 h 2.857 v 2.858 h -2.857 V 49.728 z M 24.31 23.855 c 0.407 0.677 0.188 1.553 -0.489 1.959 c -0.231 0.139 -0.487 0.205 -0.739 0.205 c -0.486 0 -0.96 -0.245 -1.228 -0.69 c -0.407 -0.677 -0.194 -1.55 0.482 -1.956 l 0.014 -0.008 C 23.028 22.96 23.904 23.18 24.31 23.855 z" stroke-linecap="round" />
</g>
</svg>